<svg width="327" height="107" viewBox="0 0 327 107" fill="none" xmlns="http://www.w3.org/2000/svg">
<path d="M136.752 44.6992L125.695 19.7323H128.548L138.892 43.2369H137.322L147.737 19.7323H150.412L139.355 44.6992H136.752ZM153.396 44.6992V25.9741H155.928V44.6992H153.396ZM154.68 21.8367C154.157 21.8367 153.717 21.6584 153.36 21.3017C153.004 20.945 152.825 20.517 152.825 20.0177C152.825 19.5183 153.004 19.1022 153.36 18.7693C153.717 18.4127 154.157 18.2343 154.68 18.2343C155.203 18.2343 155.643 18.4008 156 18.7337C156.357 19.0666 156.535 19.4827 156.535 19.982C156.535 20.5051 156.357 20.945 156 21.3017C155.667 21.6584 155.227 21.8367 154.68 21.8367ZM167.79 44.6992L159.479 25.9741H162.119L169.751 43.3439H168.503L176.243 25.9741H178.739L170.393 44.6992H167.79ZM189.737 44.8776C187.787 44.8776 186.075 44.4733 184.601 43.6649C183.127 42.8326 181.974 41.7032 181.141 40.2765C180.309 38.8261 179.893 37.1735 179.893 35.3188C179.893 33.4641 180.285 31.8234 181.07 30.3968C181.879 28.9701 182.972 27.8525 184.351 27.0441C185.754 26.2118 187.324 25.7957 189.059 25.7957C190.819 25.7957 192.377 26.2 193.732 27.0084C195.111 27.7931 196.193 28.9106 196.978 30.3611C197.762 31.7878 198.155 33.4403 198.155 35.3188C198.155 35.4377 198.143 35.5685 198.119 35.7111C198.119 35.83 198.119 35.9608 198.119 36.1035H181.819V34.2131H196.764L195.765 34.9621C195.765 33.6068 195.468 32.406 194.873 31.3598C194.303 30.2898 193.518 29.4575 192.519 28.8631C191.521 28.2686 190.367 27.9714 189.059 27.9714C187.775 27.9714 186.622 28.2686 185.6 28.8631C184.577 29.4575 183.781 30.2898 183.21 31.3598C182.639 32.4298 182.354 33.6543 182.354 35.0335V35.4258C182.354 36.8525 182.663 38.1127 183.281 39.2065C183.923 40.2765 184.803 41.1206 185.921 41.7389C187.062 42.3333 188.358 42.6305 189.808 42.6305C190.95 42.6305 192.008 42.4284 192.983 42.0242C193.982 41.62 194.838 41.0017 195.551 40.1695L196.978 41.8102C196.145 42.8089 195.099 43.5698 193.839 44.0929C192.602 44.616 191.235 44.8776 189.737 44.8776ZM203.309 44.6992V25.9741H205.734V31.0744L205.485 30.1828C206.008 28.7561 206.888 27.6742 208.124 26.9371C209.36 26.1762 210.894 25.7957 212.725 25.7957V28.2567C212.63 28.2567 212.535 28.2567 212.44 28.2567C212.345 28.233 212.25 28.2211 212.154 28.2211C210.181 28.2211 208.635 28.8274 207.518 30.0401C206.4 31.229 205.841 32.9291 205.841 35.1405V44.6992H203.309ZM225.125 44.8776C223.176 44.8776 221.464 44.4733 219.989 43.6649C218.515 42.8326 217.362 41.7032 216.53 40.2765C215.698 38.8261 215.281 37.1735 215.281 35.3188C215.281 33.4641 215.674 31.8234 216.458 30.3968C217.267 28.9701 218.361 27.8525 219.74 27.0441C221.143 26.2118 222.712 25.7957 224.448 25.7957C226.207 25.7957 227.765 26.2 229.12 27.0084C230.499 27.7931 231.581 28.9106 232.366 30.3611C233.151 31.7878 233.543 33.4403 233.543 35.3188C233.543 35.4377 233.531 35.5685 233.507 35.7111C233.507 35.83 233.507 35.9608 233.507 36.1035H217.207V34.2131H232.152L231.153 34.9621C231.153 33.6068 230.856 32.406 230.262 31.3598C229.691 30.2898 228.906 29.4575 227.908 28.8631C226.909 28.2686 225.756 27.9714 224.448 27.9714C223.164 27.9714 222.011 28.2686 220.988 28.8631C219.966 29.4575 219.169 30.2898 218.598 31.3598C218.028 32.4298 217.742 33.6543 217.742 35.0335V35.4258C217.742 36.8525 218.052 38.1127 218.67 39.2065C219.312 40.2765 220.192 41.1206 221.309 41.7389C222.45 42.3333 223.746 42.6305 225.197 42.6305C226.338 42.6305 227.396 42.4284 228.371 42.0242C229.37 41.62 230.226 41.0017 230.939 40.1695L232.366 41.8102C231.534 42.8089 230.487 43.5698 229.227 44.0929C227.991 44.616 226.623 44.8776 225.125 44.8776ZM128.941 87.6992V62.7323H133.577V87.6992H128.941ZM139.902 87.6992V68.6531H144.147V73.7891L143.398 72.2198C144.063 71.0071 145.026 70.0797 146.287 69.4377C147.571 68.7719 149.045 68.4391 150.709 68.4391C152.231 68.4391 153.587 68.7363 154.775 69.3307C155.988 69.9252 156.939 70.8406 157.629 72.0771C158.318 73.2898 158.663 74.8591 158.663 76.7851V87.6992H154.205V77.3558C154.205 75.6676 153.801 74.4073 152.992 73.5751C152.207 72.7429 151.102 72.3268 149.675 72.3268C148.629 72.3268 147.702 72.5408 146.893 72.9688C146.085 73.3968 145.454 74.0388 145.003 74.8948C144.575 75.727 144.361 76.7851 144.361 78.0691V87.6992H139.902ZM172.985 94.8683C171.226 94.8683 169.502 94.6305 167.813 94.1549C166.149 93.7032 164.782 93.0374 163.712 92.1576L165.709 88.8049C166.541 89.4945 167.588 90.0413 168.848 90.4456C170.132 90.8736 171.428 91.0876 172.735 91.0876C174.828 91.0876 176.362 90.6001 177.336 89.6252C178.311 88.6741 178.799 87.2355 178.799 85.3095V81.9212L179.155 77.6055L179.013 73.2898V68.6531H183.257V84.8102C183.257 88.258 182.377 90.7904 180.618 92.4073C178.858 94.0479 176.314 94.8683 172.985 94.8683ZM172.414 86.8432C170.607 86.8432 168.967 86.4628 167.492 85.7019C166.042 84.9172 164.889 83.8353 164.033 82.4562C163.2 81.0771 162.784 79.4601 162.784 77.6055C162.784 75.7746 163.2 74.1695 164.033 72.7904C164.889 71.4113 166.042 70.3413 167.492 69.5804C168.967 68.8195 170.607 68.4391 172.414 68.4391C174.031 68.4391 175.482 68.7601 176.766 69.4021C178.05 70.0441 179.072 71.0427 179.833 72.3981C180.618 73.7534 181.01 75.4892 181.01 77.6055C181.01 79.7217 180.618 81.4694 179.833 82.8485C179.072 84.2039 178.05 85.2144 176.766 85.8802C175.482 86.5222 174.031 86.8432 172.414 86.8432ZM173.092 83.0625C174.21 83.0625 175.208 82.8366 176.088 82.3848C176.968 81.9093 177.646 81.2673 178.121 80.4588C178.62 79.6266 178.87 78.6755 178.87 77.6055C178.87 76.5355 178.62 75.5962 178.121 74.7878C177.646 73.9555 176.968 73.3254 176.088 72.8974C175.208 72.4456 174.21 72.2198 173.092 72.2198C171.975 72.2198 170.964 72.4456 170.06 72.8974C169.181 73.3254 168.491 73.9555 167.992 74.7878C167.516 75.5962 167.278 76.5355 167.278 77.6055C167.278 78.6755 167.516 79.6266 167.992 80.4588C168.491 81.2673 169.181 81.9093 170.06 82.3848C170.964 82.8366 171.975 83.0625 173.092 83.0625ZM198.071 87.9489C195.955 87.9489 194.1 87.5328 192.507 86.7005C190.938 85.8445 189.713 84.6794 188.833 83.2052C187.977 81.7309 187.549 80.0546 187.549 78.1761C187.549 76.2739 187.965 74.5976 188.798 73.1471C189.654 71.6729 190.819 70.5196 192.293 69.6874C193.791 68.8552 195.491 68.4391 197.393 68.4391C199.248 68.4391 200.901 68.8433 202.351 69.6517C203.801 70.4602 204.943 71.6015 205.775 73.0758C206.607 74.55 207.023 76.2858 207.023 78.2831C207.023 78.4734 207.011 78.6874 206.988 78.9251C206.988 79.1629 206.976 79.3888 206.952 79.6028H191.08V76.6425H204.598L202.85 77.5698C202.874 76.476 202.648 75.513 202.173 74.6808C201.697 73.8485 201.043 73.1947 200.211 72.7191C199.403 72.2435 198.463 72.0058 197.393 72.0058C196.3 72.0058 195.336 72.2435 194.504 72.7191C193.696 73.1947 193.054 73.8604 192.578 74.7164C192.126 75.5487 191.901 76.5355 191.901 77.6768V78.3901C191.901 79.5315 192.162 80.542 192.685 81.4218C193.208 82.3016 193.945 82.9793 194.897 83.4548C195.848 83.9304 196.942 84.1682 198.178 84.1682C199.248 84.1682 200.211 84.0017 201.067 83.6689C201.923 83.336 202.684 82.8128 203.35 82.0995L205.739 84.8459C204.883 85.8445 203.801 86.6173 202.494 87.1642C201.21 87.6873 199.735 87.9489 198.071 87.9489ZM219.937 94.8683C218.178 94.8683 216.454 94.6305 214.766 94.1549C213.101 93.7032 211.734 93.0374 210.664 92.1576L212.661 88.8049C213.493 89.4945 214.54 90.0413 215.8 90.4456C217.084 90.8736 218.38 91.0876 219.688 91.0876C221.78 91.0876 223.314 90.6001 224.289 89.6252C225.264 88.6741 225.751 87.2355 225.751 85.3095V81.9212L226.108 77.6055L225.965 73.2898V68.6531H230.209V84.8102C230.209 88.258 229.33 90.7904 227.57 92.4073C225.81 94.0479 223.266 94.8683 219.937 94.8683ZM219.367 86.8432C217.56 86.8432 215.919 86.4628 214.445 85.7019C212.994 84.9172 211.841 83.8353 210.985 82.4562C210.153 81.0771 209.737 79.4601 209.737 77.6055C209.737 75.7746 210.153 74.1695 210.985 72.7904C211.841 71.4113 212.994 70.3413 214.445 69.5804C215.919 68.8195 217.56 68.4391 219.367 68.4391C220.984 68.4391 222.434 68.7601 223.718 69.4021C225.002 70.0441 226.024 71.0427 226.785 72.3981C227.57 73.7534 227.962 75.4892 227.962 77.6055C227.962 79.7217 227.57 81.4694 226.785 82.8485C226.024 84.2039 225.002 85.2144 223.718 85.8802C222.434 86.5222 220.984 86.8432 219.367 86.8432ZM220.044 83.0625C221.162 83.0625 222.161 82.8366 223.04 82.3848C223.92 81.9093 224.598 81.2673 225.073 80.4588C225.573 79.6266 225.822 78.6755 225.822 77.6055C225.822 76.5355 225.573 75.5962 225.073 74.7878C224.598 73.9555 223.92 73.3254 223.04 72.8974C222.161 72.4456 221.162 72.2198 220.044 72.2198C218.927 72.2198 217.916 72.4456 217.013 72.8974C216.133 73.3254 215.443 73.9555 214.944 74.7878C214.468 75.5962 214.231 76.5355 214.231 77.6055C214.231 78.6755 214.468 79.6266 214.944 80.4588C215.443 81.2673 216.133 81.9093 217.013 82.3848C217.916 82.8366 218.927 83.0625 220.044 83.0625ZM236.071 87.6992V68.6531H240.315V73.7891L239.566 72.2198C240.232 71.0071 241.195 70.0797 242.455 69.4377C243.739 68.7719 245.213 68.4391 246.878 68.4391C248.4 68.4391 249.755 68.7363 250.944 69.3307C252.157 69.9252 253.108 70.8406 253.797 72.0771C254.487 73.2898 254.832 74.8591 254.832 76.7851V87.6992H250.373V77.3558C250.373 75.6676 249.969 74.4073 249.161 73.5751C248.376 72.7429 247.27 72.3268 245.844 72.3268C244.797 72.3268 243.87 72.5408 243.062 72.9688C242.253 73.3968 241.623 74.0388 241.171 74.8948C240.743 75.727 240.529 76.7851 240.529 78.0691V87.6992H236.071ZM269.475 87.9489C267.358 87.9489 265.504 87.5328 263.911 86.7005C262.341 85.8445 261.117 84.6794 260.237 83.2052C259.381 81.7309 258.953 80.0546 258.953 78.1761C258.953 76.2739 259.369 74.5976 260.201 73.1471C261.057 71.6729 262.222 70.5196 263.697 69.6874C265.195 68.8552 266.895 68.4391 268.797 68.4391C270.652 68.4391 272.304 68.8433 273.755 69.6517C275.205 70.4602 276.346 71.6015 277.179 73.0758C278.011 74.55 278.427 76.2858 278.427 78.2831C278.427 78.4734 278.415 78.6874 278.391 78.9251C278.391 79.1629 278.379 79.3888 278.356 79.6028H262.484V76.6425H276.002L274.254 77.5698C274.278 76.476 274.052 75.513 273.576 74.6808C273.101 73.8485 272.447 73.1947 271.615 72.7191C270.806 72.2435 269.867 72.0058 268.797 72.0058C267.703 72.0058 266.74 72.2435 265.908 72.7191C265.099 73.1947 264.457 73.8604 263.982 74.7164C263.53 75.5487 263.304 76.5355 263.304 77.6768V78.3901C263.304 79.5315 263.566 80.542 264.089 81.4218C264.612 82.3016 265.349 82.9793 266.3 83.4548C267.251 83.9304 268.345 84.1682 269.582 84.1682C270.652 84.1682 271.615 84.0017 272.471 83.6689C273.327 83.336 274.087 82.8128 274.753 82.0995L277.143 84.8459C276.287 85.8445 275.205 86.6173 273.897 87.1642C272.613 87.6873 271.139 87.9489 269.475 87.9489ZM282.71 87.6992V68.6531H286.954V73.8961L286.455 72.3624C287.025 71.0784 287.917 70.1035 289.13 69.4377C290.366 68.7719 291.9 68.4391 293.731 68.4391V72.6834C293.54 72.6359 293.362 72.6121 293.196 72.6121C293.029 72.5883 292.863 72.5764 292.696 72.5764C291.008 72.5764 289.665 73.0758 288.666 74.0744C287.667 75.0493 287.168 76.5117 287.168 78.4615V87.6992H282.71ZM297.513 87.6992V68.6531H301.971V87.6992H297.513ZM299.76 65.5144C298.927 65.5144 298.238 65.2528 297.691 64.7297C297.168 64.2066 296.906 63.5765 296.906 62.8393C296.906 62.0784 297.168 61.4483 297.691 60.949C298.238 60.4259 298.927 60.1643 299.76 60.1643C300.592 60.1643 301.27 60.414 301.793 60.9133C302.34 61.3889 302.613 61.9952 302.613 62.7323C302.613 63.517 302.352 64.1828 301.828 64.7297C301.305 65.2528 300.616 65.5144 299.76 65.5144ZM319.557 87.6992V83.8472L319.307 83.0268V76.2858C319.307 74.978 318.915 73.9674 318.13 73.2541C317.346 72.517 316.157 72.1484 314.564 72.1484C313.494 72.1484 312.436 72.3149 311.389 72.6478C310.367 72.9807 309.499 73.4443 308.786 74.0388L307.038 70.7931C308.06 70.0084 309.273 69.4258 310.676 69.0454C312.103 68.6412 313.577 68.4391 315.099 68.4391C317.857 68.4391 319.985 69.1048 321.483 70.4364C323.005 71.7442 323.766 73.7772 323.766 76.5355V87.6992H319.557ZM313.565 87.9489C312.138 87.9489 310.89 87.7111 309.82 87.2355C308.75 86.7362 307.918 86.0585 307.323 85.2025C306.753 84.3227 306.467 83.336 306.467 82.2422C306.467 81.1722 306.717 80.2092 307.216 79.3531C307.739 78.4971 308.584 77.8195 309.749 77.3201C310.914 76.8208 312.459 76.5711 314.385 76.5711H319.914V79.5315H314.706C313.185 79.5315 312.162 79.7812 311.639 80.2805C311.116 80.756 310.854 81.3505 310.854 82.0638C310.854 82.8723 311.175 83.5143 311.817 83.9899C312.459 84.4654 313.351 84.7032 314.492 84.7032C315.586 84.7032 316.561 84.4535 317.417 83.9542C318.297 83.4548 318.927 82.7177 319.307 81.7428L320.056 84.4179C319.628 85.5354 318.856 86.4033 317.738 87.0215C316.644 87.6398 315.253 87.9489 313.565 87.9489Z" fill="#071D99"/>
<path d="M91.0883 75.0342L91.1321 74.9017C91.1321 74.9017 91.1008 74.8891 91.082 74.8828C91.0883 74.9459 91.0946 74.9963 91.0883 75.0342Z" fill="#071D99"/>
<path d="M57.3486 39.1135C57.3738 39.4745 57.5626 39.8609 57.9339 40.3929C58.0472 40.5385 58.1668 40.6462 58.2864 40.7285C58.4437 40.8425 58.601 40.9122 58.7647 40.9249C58.7898 40.9249 58.8087 40.9249 58.8339 40.9249H58.8402C58.8402 40.9249 58.8842 40.9249 58.9094 40.9185C59.1486 40.8995 59.394 40.7855 59.6521 40.5575C59.6646 40.5449 59.6835 40.5322 59.6961 40.5132C60.1933 40.0699 60.6276 39.5315 61.0492 38.8222L61.3199 38.3662L61.0681 38.4738L60.8352 38.5752C60.7723 38.6005 60.722 38.6322 60.659 38.6575C60.3695 38.7905 60.0926 38.9362 59.822 39.0882C59.7716 39.1198 59.715 39.1452 59.6646 39.1768C59.608 39.2085 59.5514 39.2402 59.4947 39.2718C59.4507 39.2908 59.4192 39.3289 59.3563 39.3859C59.3311 39.4112 59.2933 39.4429 59.2619 39.4682C59.18 39.5442 59.0793 39.6265 58.9661 39.6899C58.708 39.8292 58.4437 39.8989 58.1919 39.8989C58.1668 39.8355 58.1416 39.7215 58.1101 39.5885C58.0598 39.3352 58.0094 38.9995 58.0031 38.6892C58.0031 38.6068 58.0094 38.5245 58.0283 38.4485C58.0409 38.3662 58.0598 38.3028 58.0724 38.2522C58.0912 38.1888 58.1101 38.1065 58.0724 38.0368C58.0724 38.0368 58.0724 38.0242 58.0661 38.0242C58.0535 38.0052 58.0346 37.9862 58.0094 37.9672L57.9528 37.9482L57.8584 37.9102L57.764 38.0305C57.4619 38.4295 57.3234 38.7525 57.3486 39.1072V39.1135ZM58.8339 40.1269C58.9346 40.0889 59.029 40.0572 59.1297 40.0065C59.2241 39.9559 59.3122 39.8925 59.3877 39.8292C59.4695 39.7659 59.5388 39.7025 59.5891 39.6519C59.6206 39.6202 59.6332 39.6012 59.6458 39.5949C59.759 39.5315 59.866 39.4745 59.9793 39.4112C60.0989 39.3415 60.2248 39.2782 60.3443 39.2085C60.3695 39.1958 60.3884 39.1832 60.4136 39.1705C60.2248 39.4492 60.0234 39.6835 59.8157 39.9052C59.6835 40.0445 59.5514 40.1839 59.4129 40.3042C59.2807 40.4182 59.1612 40.4942 59.0479 40.5385C58.9535 40.5765 58.8654 40.5955 58.7835 40.5892C58.6828 40.5829 58.5884 40.5322 58.4877 40.4625C58.4122 40.4119 58.343 40.3485 58.2675 40.2662C58.2989 40.2662 58.3367 40.2535 58.3682 40.2472C58.5192 40.2345 58.6703 40.1902 58.8276 40.1332L58.8339 40.1269Z" fill="#071D99"/>
<path d="M65.7993 31.403C65.8874 31.6374 66.0196 31.8147 66.1958 31.9097C66.3154 31.973 66.4539 32.0111 66.6112 32.0111C66.7559 32.0111 66.9196 31.9794 67.1084 31.9224C67.3098 31.8527 67.5238 31.802 67.7377 31.745C67.8007 31.726 67.8636 31.707 67.9265 31.6944L68.0839 31.6564L68.1594 31.6374C68.2098 31.6247 68.2475 31.612 68.2916 31.6057C68.5622 31.536 68.7573 31.479 68.8895 31.403C68.9461 31.3714 68.9965 31.3334 69.0342 31.289C69.0531 31.2637 69.0783 31.2447 69.0972 31.2194C69.0972 31.213 69.0972 31.2004 69.1034 31.1877C69.2041 30.9787 69.1223 30.7127 68.965 30.206L68.9461 30.168C68.5559 29.5663 68.5056 28.933 68.6251 28.2173C68.6629 27.983 68.7195 27.7423 68.7888 27.4953L68.8832 27.1406L68.5559 27.2863C67.6874 27.6726 67.0769 27.9956 66.6427 28.3566C65.8371 29.0217 65.6735 29.7943 65.749 31.2447C65.7616 31.3017 65.7867 31.3524 65.8056 31.403H65.7993Z" fill="#071D99"/>
<path d="M21.1664 47.444C21.1664 47.4947 21.1664 47.5517 21.1853 47.6087C21.2042 47.6657 21.2294 47.71 21.2546 47.7543C21.2734 47.786 21.2923 47.824 21.3175 47.8493C21.3553 47.8937 21.393 47.9317 21.4434 47.957C21.4685 47.9697 21.5 47.9697 21.5252 47.9697C21.5504 47.9697 21.5692 47.9823 21.5944 47.9823C21.6573 47.9823 21.7266 47.9633 21.7832 47.9443C21.8462 47.9253 21.9028 47.8937 21.9594 47.8683H21.9657C21.9972 47.8493 22.0287 47.8303 22.0601 47.8177C23.1363 47.3807 24.2062 46.9436 25.2761 46.5066L26.8307 45.8733V45.7593C26.8307 45.696 26.8307 45.506 26.6922 45.411C26.623 45.3666 26.5412 45.3603 26.4656 45.373C26.453 45.373 26.4468 45.373 26.4342 45.3793C26.3712 45.392 26.3146 45.4173 26.2642 45.4426L25.4335 45.7213L25.3076 45.7656C24.1181 46.1646 22.9286 46.57 21.7392 46.9753C21.7266 46.9753 21.7077 46.988 21.6888 46.988C21.6699 46.988 21.6511 47.0006 21.6259 47.0006C21.5252 47.026 21.4056 47.0513 21.3112 47.121C21.2734 47.1463 21.2357 47.1843 21.2105 47.2287C21.179 47.2793 21.1664 47.3363 21.1602 47.3997C21.1602 47.4123 21.1602 47.425 21.1602 47.4377L21.1664 47.444ZM21.5126 47.4123H21.5252C21.5252 47.4123 21.607 47.368 21.6636 47.3553L21.7077 47.3427C21.758 47.33 21.8084 47.3173 21.8524 47.3047C22.1294 47.2096 22.4 47.121 22.6769 47.026C23.4951 46.7473 24.3132 46.4686 25.1314 46.1963C24.5146 46.4496 23.8979 46.6966 23.2811 46.95C22.8342 47.1336 22.3811 47.3173 21.9343 47.501C21.9028 47.5137 21.8776 47.5263 21.8462 47.5453C21.8336 47.5517 21.821 47.558 21.8021 47.5643C21.758 47.5897 21.6888 47.615 21.6385 47.6277C21.6196 47.6277 21.5944 47.6403 21.5818 47.6403L21.5692 47.6277C21.5692 47.6277 21.5504 47.596 21.5315 47.558C21.5315 47.5453 21.5189 47.539 21.5126 47.52C21.5126 47.5073 21.5126 47.501 21.5126 47.4883C21.5126 47.4693 21.5063 47.4567 21.5063 47.444C21.5063 47.4313 21.5063 47.4187 21.5063 47.4187L21.5126 47.4123Z" fill="#071D99"/>
<path d="M69.1462 29.892C69.2469 30.1327 69.379 30.3543 69.5301 30.5633C69.6496 30.7344 69.7818 30.8927 69.9077 31.051L69.9517 31.108L70.0336 31.2157H70.0524L70.1531 31.165C70.6755 30.9497 71.2293 30.7914 71.7643 30.633C71.9216 30.5887 72.079 30.538 72.2426 30.4937C72.6643 30.367 73.0922 30.2213 73.5013 30.044C73.5957 30.006 73.6901 29.968 73.7782 29.9237C73.816 29.9047 73.86 29.892 73.9041 29.8857C74.0048 29.8603 74.1181 29.8287 74.2062 29.7463C74.2377 29.721 74.2628 29.6893 74.2817 29.6513C74.2817 29.6513 74.288 29.607 74.2943 29.5817C74.3258 29.4867 74.3258 29.3853 74.2754 29.265C74.0992 28.7836 73.9985 28.315 73.9733 27.859C73.9482 27.3586 74.0174 26.8646 74.181 26.3706C74.2628 26.1173 74.3635 25.8639 74.4957 25.6043L74.6342 25.3319L74.6593 25.2812L74.3069 25.3509C74.1496 25.3826 73.9922 25.4206 73.8349 25.4586C73.023 25.6359 72.2174 25.8513 71.3867 26.1109C71.1979 26.1679 71.0154 26.2249 70.8265 26.2883C70.4804 26.4086 70.128 26.5289 69.7629 26.6619C69.6748 26.6936 69.6056 26.7443 69.5489 26.7949C69.5364 26.8076 69.5175 26.8076 69.5049 26.8203C69.4357 26.8899 69.3853 26.9786 69.3476 27.0863L69.2972 27.2256L69.272 27.289C69.0895 27.8083 68.9007 28.353 68.9825 28.9167C68.9511 29.284 69.0203 29.6007 69.1399 29.892H69.1462Z" fill="#071D99"/>
<path d="M45.8273 41.98L45.865 42.0306C45.9028 42.0813 45.9342 42.1383 45.972 42.189L46.0664 42.3283L48.395 40.8906L47.6146 40.9856C47.4447 41.0046 47.2937 41.0426 47.1489 41.087C46.7084 41.2263 46.3559 41.4733 46.0161 41.7203L45.8021 41.8723L45.7832 41.885L45.8461 41.98H45.8273Z" fill="#071D99"/>
<path d="M74.7385 25.8726C74.7385 25.8726 74.7007 25.9359 74.6818 25.9612C74.6756 25.9739 74.663 25.9866 74.6567 26.0056C74.6441 26.0182 74.6378 26.0309 74.6315 26.0499C74.6063 26.1006 74.5812 26.1576 74.5623 26.2146V26.2336L74.5497 26.2462C74.5119 26.3603 74.4805 26.4869 74.4553 26.6263C74.4301 26.7656 74.4175 26.9113 74.4112 27.0696C74.3986 27.4623 74.4993 27.8106 74.6 28.1526L74.6441 28.2983C74.877 29.0836 74.9902 29.3876 75.4245 29.3876C75.4497 29.3876 75.4748 29.3876 75.5063 29.3876C75.6951 29.375 75.928 29.318 76.2489 29.223L76.3182 29.204C76.6077 29.1153 76.9161 29.0203 77.2056 28.9063C77.6839 28.7226 78.1307 28.4756 78.4643 28.0703C78.6468 27.8549 78.7916 27.5889 78.8922 27.2659L78.9426 27.1013C79.0936 26.6073 79.2384 26.1449 79.5782 25.7649L79.6349 25.6952H79.6412L79.5216 25.2329H79.3894C79.0748 25.2329 78.7538 25.2392 78.4391 25.2392C78.0678 25.2392 77.6839 25.2392 77.3063 25.2392C76.979 25.2392 76.6454 25.2392 76.3182 25.2266C76.0727 25.2266 75.8525 25.2456 75.6574 25.2836H75.6448C75.5692 25.3026 75.5 25.3152 75.4308 25.3406C75.3867 25.3532 75.3427 25.3659 75.3049 25.3912C75.286 25.3976 75.2672 25.4039 75.2483 25.4166C75.2357 25.4166 75.2294 25.4229 75.2168 25.4292C75.179 25.4482 75.1476 25.4736 75.1161 25.4926C75.0972 25.5052 75.0783 25.5116 75.0658 25.5242C75.0406 25.5369 75.0154 25.5622 74.9965 25.5812C74.9399 25.6256 74.8895 25.6762 74.8392 25.7332C74.814 25.7586 74.7888 25.7839 74.7637 25.8156C74.7511 25.8282 74.7448 25.8409 74.7385 25.8599V25.8726Z" fill="#071D99"/>
<path d="M57.1562 53.8972C57.5652 53.3209 57.968 52.7509 58.3708 52.1682C58.396 52.1365 58.4149 52.0985 58.4149 52.0288C58.4149 51.9402 58.396 51.8072 58.3205 51.5918C58.2953 51.5285 58.2701 51.4588 58.2387 51.3828C58.2387 51.3828 58.138 51.1548 58.0058 50.8888C57.9491 50.7748 57.8862 50.6545 57.8233 50.5405H57.8107C57.7729 50.4771 57.7415 50.4201 57.7037 50.3631C57.6911 50.3441 57.6785 50.3315 57.6659 50.3125C57.6345 50.2745 57.6093 50.2365 57.5778 50.1985C57.5589 50.1731 57.5338 50.1478 57.5149 50.1288C57.4897 50.1035 57.4708 50.0781 57.4457 50.0591C57.4142 50.0338 57.3827 50.0211 57.3513 50.0085C57.3387 50.0085 57.3261 49.9895 57.3198 49.9895C57.238 49.9768 57.175 49.9895 57.1121 50.0085C57.1121 50.0085 57.1058 50.0085 57.0995 50.0085C57.0995 50.0085 57.0806 50.0211 57.068 50.0275C57.0618 50.0275 57.0492 50.0275 57.0492 50.0338C56.9799 50.0781 56.9233 50.1288 56.8855 50.1795H56.8792C56.8792 50.1795 56.8604 50.2048 56.8541 50.2175V50.2301C56.8541 50.2301 56.81 50.2681 56.7974 50.2871L56.6527 50.4391L56.5331 50.5658C56.1429 50.9712 55.7401 51.3828 55.3751 51.8198C55.3058 51.8958 55.2303 51.9782 55.1422 52.0542C55.0541 52.1302 54.966 52.2062 54.8716 52.2822C54.8149 52.3328 54.7583 52.3772 54.7017 52.4279C54.5003 52.6052 54.3115 52.7825 54.1919 52.9852C54.1038 53.1372 54.0534 53.3019 54.0723 53.4855C54.1227 53.9415 54.5254 54.3216 54.9156 54.6952C55.0793 54.8536 55.2492 55.0119 55.3814 55.1702V55.1829C55.4317 55.2336 55.4695 55.3032 55.5072 55.3792C55.5198 55.4046 55.5324 55.4299 55.5513 55.4552C55.5513 55.4679 55.5639 55.4806 55.5702 55.4932L55.6079 55.5566L55.7275 55.5882C55.7275 55.5882 55.7716 55.6009 55.7967 55.6072C55.8471 55.6199 55.8974 55.6326 55.9541 55.6516L56.1303 55.7022L56.1555 55.5882L56.1744 55.5186C56.1806 55.4806 56.1869 55.4362 56.1932 55.3919C56.1932 55.3666 56.1995 55.3412 56.2058 55.3159C56.2058 55.2842 56.2184 55.2589 56.231 55.2462C56.4198 54.9676 56.6149 54.6952 56.81 54.4229C56.9359 54.2456 57.0618 54.0682 57.1813 53.8909L57.1562 53.8972ZM55.8471 55.2209C55.8471 55.2209 55.8408 55.2526 55.8345 55.2652H55.8219V55.2462L55.7967 55.2209C55.7967 55.2209 55.7905 55.2082 55.7842 55.2019C55.7464 55.1259 55.7023 55.0436 55.6457 54.9676C55.6457 54.9612 55.6394 54.9486 55.6331 54.9422C55.5261 54.8156 55.4065 54.6952 55.2807 54.5749C55.2366 54.5306 55.1863 54.4862 55.1422 54.4419C54.8968 54.2076 54.6576 53.9732 54.5191 53.7452C54.4625 53.6439 54.4185 53.5489 54.4059 53.4539C54.3996 53.3779 54.4122 53.3019 54.4436 53.2322C54.4436 53.2322 54.4625 53.2005 54.4751 53.1815C54.5884 52.9725 54.8275 52.7699 55.0793 52.5545C55.2744 52.3899 55.4695 52.2252 55.6205 52.0478C55.9856 51.6172 56.382 51.2055 56.766 50.8065L57.0366 50.5278L57.0492 50.5151C57.0492 50.5151 57.0932 50.4645 57.1121 50.4455C57.1499 50.4011 57.175 50.3695 57.1939 50.3568C57.1939 50.3568 57.1939 50.3568 57.2002 50.3505C57.2128 50.3378 57.2254 50.3315 57.2443 50.3315C57.2443 50.3315 57.2569 50.3441 57.2631 50.3505C57.2757 50.3631 57.2946 50.3821 57.3135 50.4011C57.3261 50.4138 57.3324 50.4201 57.3387 50.4391C57.3827 50.4961 57.4331 50.5721 57.4834 50.6545C57.5023 50.6862 57.5275 50.7242 57.5464 50.7622C57.5904 50.8382 57.6282 50.9142 57.6722 50.9965C57.8799 51.3955 58.0687 51.8452 58.0687 51.9908C57.6722 52.5609 57.2694 53.1309 56.8729 53.6945C56.552 54.1442 56.231 54.5939 55.9163 55.0499C55.9037 55.0689 55.8974 55.0879 55.8911 55.1006C55.8723 55.1386 55.8597 55.1766 55.8471 55.2146V55.2209Z" fill="#071D99"/>
<path d="M69.3722 70.4725C69.3722 70.4725 69.3596 70.4535 69.3533 70.4408C69.3281 70.3965 69.3092 70.3521 69.2841 70.3141C69.2841 70.3141 69.2715 70.2951 69.2652 70.2888L69.1393 70.0735L68.9946 69.8201C66.1813 64.9877 63.3807 60.1616 60.5801 55.3292C60.1647 54.6072 59.743 53.8915 59.3276 53.1758C59.3213 53.1632 59.315 53.1505 59.3025 53.1378C59.1892 52.9478 59.0507 52.7705 58.8556 52.7578C58.799 52.7578 58.7486 52.7641 58.7046 52.7831C58.7046 52.7831 58.6542 52.8148 58.629 52.8338C58.6102 52.8465 58.5913 52.8528 58.5787 52.8718C58.4969 52.9478 58.4214 53.0555 58.3458 53.1695C58.2514 53.3025 58.1696 53.4292 58.0815 53.5558C57.7479 54.0372 57.427 54.4805 57.1123 54.9049C56.9613 55.1075 56.8102 55.3039 56.6529 55.4939C56.6025 55.5572 56.5585 55.6205 56.527 55.6775C56.2815 56.0829 56.4137 56.3869 56.7032 56.7289C59.9003 60.434 63.0786 64.1517 66.2694 67.8758C66.5338 68.1798 66.7981 68.4901 67.0561 68.7941L69.2904 71.4035L69.3155 71.3465L69.4036 71.1565C69.498 70.9412 69.4792 70.7638 69.4225 70.5992C69.4099 70.5548 69.3973 70.5168 69.3785 70.4788L69.3722 70.4725ZM69.0071 70.5232C69.0071 70.5232 69.0134 70.5422 69.0197 70.5548L67.8806 69.2248L67.3142 68.5598C64.6331 65.4311 61.9521 62.315 59.271 59.1926C58.4969 58.2933 57.7291 57.3939 56.955 56.4946C56.7599 56.2665 56.7032 56.1272 56.7661 55.9625C56.7913 55.8865 56.8354 55.8105 56.9172 55.7155C57.4962 54.9999 58.0186 54.2588 58.6353 53.3658C58.6605 53.3342 58.6731 53.3088 58.692 53.2835C58.7864 53.1568 58.8304 53.1125 58.843 53.1125C58.843 53.1125 58.8619 53.1188 58.8934 53.1568C58.9248 53.1948 58.9689 53.2518 59.0255 53.3595C62.2416 58.9139 65.4639 64.4557 68.6925 70.0038L68.7743 70.1431L68.9631 70.4661L68.982 70.4915L69.0009 70.5295L69.0071 70.5232Z" fill="#071D99"/>
<path d="M54.1844 54.5551C53.9578 54.2891 53.7564 54.1118 53.5047 54.1055C53.3096 54.1118 53.0893 54.2195 52.8313 54.4855C50.2446 57.2215 47.595 59.9766 45.0335 62.643L43.0637 64.7013C42.8371 64.9293 42.7112 65.1953 42.6357 65.5563C42.2958 67.26 41.9434 68.9637 41.5847 70.6738C41.4147 71.5035 41.2385 72.3331 41.0686 73.1692C40.905 73.9418 40.7539 74.7209 40.5966 75.5189L40.3008 77.0262L40.6092 76.8806C41.0182 76.6906 41.2008 76.3992 41.3581 76.1396C41.4022 76.0699 41.4399 76.0002 41.4903 75.9369C44.1839 72.1558 46.8776 68.3747 49.5649 64.5937L54.348 57.8739H54.3543C55.5249 56.2272 55.5186 56.1322 54.2222 54.6058L54.1844 54.5551ZM44.1524 70.9145L41.4966 74.4549L42.2014 70.9145H44.1524ZM42.9755 65.626C42.6357 67.3234 42.2895 69.0207 41.9308 70.7181C41.9245 70.7181 41.9308 70.7244 41.9308 70.7244C41.9308 70.7244 41.9308 70.7244 41.9308 70.7308C42.2895 69.0271 42.642 67.3234 42.9818 65.626H42.9755ZM54.0711 57.6649L50.767 62.3073C50.6852 62.2313 50.6034 62.1553 50.5467 62.0603C49.9236 61.1419 49.1999 60.3376 48.1992 59.8499C47.2237 60.8696 46.2482 61.8893 45.2853 62.89C47.8468 60.2172 50.4964 57.4622 53.083 54.7261C53.2592 54.5425 53.3914 54.4538 53.4921 54.4538H53.4984C53.5991 54.4538 53.725 54.5551 53.9201 54.7831L53.9641 54.8338C54.7319 55.7416 54.7676 56.6853 54.0711 57.6649Z" fill="#071D99"/>
<path d="M58.5098 50.6736L58.9251 51.3893L65.4453 42.1742L65.0803 41.8828L64.9859 41.9145C64.9859 41.9145 64.9544 41.9271 64.9355 41.9271C64.8663 41.9461 64.7782 41.9651 64.7089 42.0348C63.5132 43.2825 62.3174 44.5302 61.1279 45.7779L58.044 49.0016C57.9182 49.1346 57.7105 49.35 57.9245 49.692C58.1259 50.0086 58.3084 50.3316 58.5098 50.6736Z" fill="#071D99"/>
<path d="M107.021 53.5434C106.996 52.1501 106.958 50.763 106.901 49.3697C106.883 48.939 106.782 48.502 106.725 48.0713C106.688 47.8053 106.581 47.5203 106.637 47.2797C106.845 46.4753 106.574 45.7406 106.373 44.9933C106.278 44.6196 106.083 44.3093 105.756 44.0939C105.523 43.9419 105.385 43.7329 105.259 43.4796C105.089 43.1249 104.831 42.8082 104.604 42.4916C104.39 42.1812 103.95 42.0356 103.61 41.8202C103.553 41.7822 103.497 41.7379 103.434 41.7125C102.785 41.3959 102.339 40.9335 102.32 40.2242C101.672 39.5338 101.124 38.8435 100.287 38.5015C100.148 37.8618 99.8905 37.3298 99.3366 36.9815C99.2045 36.8991 99.1163 36.7345 99.0219 36.6015C98.7702 36.2468 98.5247 35.8858 98.2793 35.5311C98.0905 35.4868 97.9017 35.4424 97.6814 35.3918C97.7443 35.0688 97.801 34.7838 97.8639 34.4924C97.1905 33.7641 96.5234 33.0357 95.8689 32.32C95.9633 32.13 96.0262 31.9907 96.1458 31.75C95.85 31.864 95.68 31.9274 95.4535 32.016C94.9374 31.351 94.2703 30.838 93.7416 30.173C93.043 29.299 92.2815 28.482 91.2934 27.9183C90.8592 27.6649 90.4249 27.4116 89.9844 27.1646C89.9529 27.1519 89.8774 27.2089 89.7515 27.2533C90.0536 27.5889 90.3494 27.8993 90.6137 28.2286C90.9347 28.634 91.1487 29.0773 90.7836 29.66C90.6137 29.508 90.4627 29.3876 90.3368 29.2483C89.934 28.8176 89.4746 28.501 88.8515 28.52C88.7949 28.5263 88.7382 28.4566 88.6627 28.4123C88.5494 28.2033 88.4362 27.9816 88.3292 27.779C89.1347 27.2659 89.934 26.7466 90.7207 26.2399C91.7025 25.6066 92.6843 24.9732 93.6724 24.3462C93.7165 24.3146 93.7668 24.2892 93.8172 24.2702C93.9619 24.1942 94.2199 24.0739 94.2199 23.7952C94.2199 23.7382 94.2074 23.6685 94.1822 23.5989C94.05 23.2379 93.6913 23.2949 93.4962 23.3202L93.364 23.3392C92.1494 23.4215 90.9158 23.5482 89.7263 23.6749C89.1033 23.7382 88.4865 23.8079 87.8697 23.8649C86.9383 23.9535 86.0194 24.0549 85.0943 24.1625C84.7292 24.2006 84.3642 24.2449 83.9929 24.2829C83.653 23.9915 83.3132 23.7002 82.9607 23.4089C82.6775 23.1682 82.3817 22.9719 81.9852 22.9275C81.7398 22.9022 81.4818 22.7312 81.2867 22.5602C80.8839 22.1992 80.4496 21.8445 80.1538 21.4075C79.644 20.6538 78.9203 20.1851 78.2343 19.6658C78.0643 19.7608 77.9259 19.8431 77.756 19.9381C77.1014 19.4251 76.2203 19.2541 75.7294 18.4941C75.6854 18.4244 75.5532 18.3674 75.4714 18.3801C75.2322 18.4308 75.0938 18.3041 74.949 18.1521C74.6721 17.8544 74.3889 17.5694 74.112 17.2718C73.3882 16.5181 72.6645 15.7644 71.947 15.0107C71.7456 15.0804 71.5946 15.131 71.4309 15.188C70.7701 14.447 69.889 14.0417 69.0457 13.5857C68.8757 13.7694 68.9072 13.9467 69.0142 14.0797C69.2093 14.3267 69.4107 14.561 69.6184 14.7954C68.9261 14.8777 67.51 15.207 67.4911 14.941C67.466 14.6117 67.2835 14.3774 66.9373 14.3077C66.8052 14.276 66.6856 14.219 66.5282 14.162C66.4087 13.7694 66.2073 13.44 65.8485 13.1993C65.2884 12.8257 64.7534 12.4203 64.2059 12.0277C63.9982 11.882 63.7905 11.7996 63.5073 11.9643C63.457 12.11 63.3877 12.2873 63.3059 12.5153C63.1738 12.471 62.9975 12.471 62.9409 12.395C62.6388 11.958 62.2108 11.7046 61.7514 11.483C61.5311 11.3816 61.3801 11.198 61.3549 10.932C61.336 10.7736 61.2983 10.6153 61.2731 10.4823C61.0151 10.4316 60.8137 10.4253 60.6312 10.3556C60.4235 10.2733 60.2284 10.1466 60.0144 10.0263C59.6494 10.533 59.1522 10.533 58.6361 10.5583C58.1263 9.96295 57.1823 9.79194 57.1005 8.75959C56.6662 8.94959 56.3389 8.77859 56.0431 8.55059C55.8606 8.40492 55.6907 8.23391 55.5208 8.06924C55.3131 7.86024 55.0802 7.79057 54.7844 7.89191C54.6774 7.92991 54.5453 7.92357 54.4068 7.93624C54.3565 7.69557 54.3565 7.4739 54.2621 7.3219C54.1425 7.13823 53.9411 7.00522 53.8026 6.87856C53.8656 6.62522 53.9096 6.44155 53.96 6.22621C53.7208 6.12487 53.532 6.06154 53.3558 5.97287C53.1796 5.8842 52.9719 5.8082 52.8649 5.66253C52.4747 5.12419 51.8705 5.01019 51.3481 4.76318C51.1216 4.89618 50.9265 5.01019 50.7691 5.10519C50.4733 5.00385 50.4607 4.82018 50.4733 4.59851C50.4859 4.42751 50.3789 4.36417 50.2153 4.43384C50.0831 4.43384 49.9573 4.43384 49.8251 4.43384C49.8188 4.43384 49.8188 4.42751 49.8188 4.42751C49.951 4.42751 50.0831 4.42751 50.2216 4.43384C50.0768 3.73716 49.7307 3.20515 49.0636 2.90115C48.8874 2.81881 48.7426 2.67314 48.579 2.55281C48.3083 2.35014 48.0629 2.09046 47.7608 1.97013C47.3895 1.81813 47.1818 1.57112 46.9678 1.24812C46.4769 0.513435 45.7469 0.0574262 44.8658 0.00675862C44.2742 -0.0249086 43.6511 0.0574262 43.0658 0.196762C41.1651 0.646437 39.2645 1.08978 37.3953 1.65346C35.6834 2.1728 34.0408 2.86315 32.3919 3.55983C30.6801 4.28184 29.006 5.07352 27.3822 5.97287C25.7585 6.87222 24.2229 7.91724 22.6998 8.98126C21.0131 10.1656 19.3516 11.3753 17.8789 12.832C17.6209 13.0853 17.281 13.2627 17.1426 13.6427C16.9978 14.0354 16.5006 13.9784 16.2552 14.2634C16.0412 14.5167 15.7454 14.713 15.6888 15.1944C15.9405 15.5174 16.3685 15.8277 16.4251 16.2014C17.2936 16.8347 18.0552 17.3921 18.8167 17.9494C19.5153 18.4624 20.1257 19.1085 20.925 19.4885C20.9754 19.5138 21.0446 19.4948 21.1012 19.4948C21.1264 19.4631 21.1579 19.4378 21.1579 19.4125C21.1642 19.2478 21.1642 19.0831 21.1642 18.9248C21.7935 18.7854 21.7935 18.7918 22.083 19.3555C22.0012 19.5201 21.9194 19.6911 21.8313 19.8811C22.3096 20.2675 22.7502 20.6222 23.1341 20.9325C23.1907 21.2935 23.2285 21.5532 23.2725 21.8255C23.562 21.9712 23.8264 22.1042 24.0781 22.2308C24.311 22.9339 24.8396 23.2442 25.3683 23.3329C25.7837 23.7699 26.1046 24.1119 26.3878 24.4096C26.6899 24.3779 26.9102 24.3589 27.1871 24.3336C27.2375 24.6312 27.2752 24.8846 27.3193 25.1442C27.5207 25.0556 27.6969 24.9796 27.8605 24.9099C28.2193 25.1822 28.5277 25.4419 28.8612 25.6636C29.2388 25.9169 29.6605 26.1133 29.8996 26.5249C30.7619 27.1393 31.6178 27.7536 32.4737 28.3743C32.5241 28.4123 32.5618 28.4756 32.6059 28.52C32.5807 28.6846 32.5555 28.843 32.5178 29.0456C32.7003 29.0836 32.845 29.166 32.9394 29.128C33.2352 29.014 33.4744 29.0963 33.6884 29.28C34.173 29.6917 34.7583 29.9767 35.1233 30.534C35.2932 30.8 35.5953 30.9267 35.9226 30.8633C36.0548 30.838 36.168 30.7113 36.3569 30.5847C36.0548 30.3757 35.8345 30.2427 35.6331 30.078C35.5261 29.9893 35.4758 29.85 35.6016 29.7423C36.0736 29.9893 36.5331 30.23 37.2128 30.5783C37.5023 30.8443 37.9428 31.294 38.1442 31.9147H38.1505C38.4715 32.0857 38.7925 32.2567 39.1575 32.4467C39.019 32.6177 38.8743 32.7254 38.8302 32.8647C38.7799 33.0421 38.7421 33.2891 38.8239 33.4347C38.9813 33.7261 39.2393 33.9414 39.5917 33.9731C39.7868 33.5994 39.3085 33.3271 39.5603 32.9534C39.7365 32.9787 39.9757 32.9534 40.1141 33.0547C40.5673 33.3967 40.9889 33.7831 41.3728 34.1061V35.3158C41.5994 35.5058 41.8826 35.7464 42.1406 35.9681C42.191 36.2278 42.2351 36.4621 42.2791 36.6901C42.6693 36.9055 43.0343 37.2665 43.4245 37.2918C43.67 37.3108 43.8714 37.3741 44.035 37.4755L41.8574 38.3305C38.9813 39.4642 36.1114 40.5915 33.2352 41.7252C33.0779 41.7885 32.9206 41.8645 32.7758 41.9469C32.436 42.1306 32.1087 42.3016 31.6996 42.2319C31.3661 42.1686 31.0199 42.1432 30.6863 42.1116C30.3402 42.0862 29.9815 42.0546 29.6416 41.9912C28.0619 41.6999 26.4948 41.2122 24.9844 40.7372C24.4368 40.5662 23.8893 40.3952 23.3292 40.2305C22.4607 39.3185 21.2586 38.1468 20.1257 37.2475C20.239 36.8991 20.3523 36.5255 20.4719 36.1328C20.5411 35.9111 20.6166 35.6831 20.6985 35.4614C20.8998 34.8914 21.1012 34.3087 21.1956 33.5931L21.246 33.2004L20.925 33.4284C20.711 33.5741 20.4971 33.7134 20.2894 33.8464C19.66 34.2517 19.0558 34.6317 18.6342 35.2904C18.4265 35.6071 18.2188 35.9174 18.0111 36.2341C18.0048 36.2341 18.0048 36.2404 18.0048 36.2404C17.8475 36.3608 17.7027 36.4684 17.558 36.4811C16.9475 36.5255 16.3055 36.6838 15.7265 36.2721C15.5629 36.1518 15.3741 35.9491 15.0279 36.1138C15.5881 36.7535 16.1419 37.3615 16.6894 38.1468C16.6706 38.1721 16.6517 38.2038 16.6328 38.2291C16.4188 38.1975 16.293 38.1848 16.1671 38.1658C16.1671 38.1595 16.1671 38.1468 16.1671 38.1405L16.1419 38.1658H16.1734C16.2048 38.2988 16.2174 38.4255 16.2867 38.5205C16.3118 38.5522 16.337 38.5902 16.3622 38.6218C16.1104 38.9955 15.8587 39.3628 15.607 39.7428C15.3426 40.1355 15.072 40.5219 14.7951 40.9145C14.2601 41.6745 13.7252 42.4536 13.2406 43.2769C13.2217 43.3022 13.2028 43.3339 13.1839 43.3656C12.8881 43.8786 12.6175 44.3979 12.3846 44.9363C12.2965 45.1389 12.2147 45.3416 12.1455 45.5506C12.0888 45.6836 12.0448 45.8166 12.0007 45.956C11.6357 45.6393 11.3336 45.1516 10.7043 45.3796C10.5973 45.937 11.2266 46.0953 11.2581 46.5703C11.0504 46.792 10.7987 46.7666 10.5406 46.716C10.0371 46.3993 9.79169 45.7406 9.07423 45.614C9.04276 45.88 9.01129 46.108 8.97982 46.336C8.72808 46.2093 8.47004 46.0826 8.22459 45.9623C7.95397 46.0953 7.95397 46.3296 7.90362 46.564C7.87845 46.6843 7.70852 46.7793 7.61412 46.8743C7.07287 46.5386 6.85889 45.9053 6.24212 45.7723C5.98408 45.937 5.92744 46.1523 6.04702 46.393C6.17918 46.6653 6.3554 46.9123 6.50016 47.1783C6.52533 47.229 6.49386 47.305 6.48757 47.3683C6.23583 47.5013 6.02184 47.0516 5.74493 47.3303C5.63164 47.6407 5.92115 47.9067 5.88968 48.1853C5.84562 48.6603 6.09107 48.9453 6.38687 49.2304C6.50645 49.3444 6.65749 49.4457 6.7456 49.5787C6.79595 49.6674 6.76449 49.813 6.77707 49.9524C6.34282 49.8574 6.1666 49.566 5.9652 49.2937C5.88339 49.186 5.75751 49.1164 5.63164 49.2747C5.73863 49.9334 6.17289 50.4084 6.62603 50.8834C6.59456 51.1621 6.56309 51.4217 6.53792 51.6561C6.07219 51.6244 5.61906 51.7574 5.30438 51.3077C5.20368 51.5484 5.13445 51.7257 5.09669 51.8081C4.53656 52.1564 4.3981 51.4281 3.92608 51.4977V52.2071C3.74357 52.0804 3.60511 51.9917 3.42889 51.8714C3.30302 52.1501 3.19603 52.3907 3.08275 52.6314C2.96317 52.6694 2.84359 52.7074 2.73031 52.7454C2.69884 52.8974 2.67366 53.0241 2.64849 53.1698C2.45968 53.1698 2.53521 53.2838 2.145 53.2838C2.53521 53.5434 2.51003 53.5878 2.62961 53.6701C2.67366 54.6518 3.01981 55.3485 3.49183 55.9882C3.42889 56.1465 3.38484 56.2732 3.34078 56.3935C2.76177 56.3112 2.18277 56.3555 1.6604 56.0578C1.59746 56.0261 1.45271 56.1275 1.33943 56.1718C1.48418 56.4568 1.59746 56.6785 1.72334 56.9192C1.11286 57.0395 0.615667 56.6278 0.0366585 56.8305C0.0240713 56.9762 -0.0136901 57.1028 0.0051906 57.2295C0.118475 58.3442 0.219172 59.4589 0.376511 60.5609C0.571612 61.9353 0.722658 63.392 1.11286 64.7283C1.02475 65.4757 2.09466 67.4707 2.13242 68.18C2.13242 68.2244 2.22682 68.2687 2.27717 68.3131C2.36528 68.4017 2.53521 68.4967 2.52891 68.5854C2.52891 68.9717 2.82471 69.1047 3.06387 69.2694C3.47924 69.5607 3.9135 69.8204 4.34775 70.0801C4.70649 70.3018 4.9834 70.5614 4.99599 71.0364C5.01487 71.5178 5.31067 71.8408 5.68829 72.1005C6.04702 72.3538 6.39946 72.6071 6.73931 72.8541C6.83371 73.5698 7.22392 74.0638 7.72111 74.4882C8.02949 74.7478 8.319 75.0265 8.40711 75.4445C8.40711 75.3558 8.35676 74.6592 8.43228 75.4319C8.42599 75.4319 8.41969 75.4382 8.40711 75.4445C8.24977 75.5205 8.14278 75.6409 8.27494 75.8055C8.45116 76.0209 8.67144 76.1982 8.87913 76.3945V76.2932C10.0308 76.8189 10.9497 77.5726 11.7805 78.4592C12.3091 79.0229 12.8818 79.5486 13.4357 80.0933C13.5301 80.1883 13.6497 80.2643 13.7252 80.3783C14.4049 81.4043 15.3237 82.196 16.2741 82.956C16.6832 83.2853 17.1929 83.5007 17.6649 83.754C17.7027 83.7793 17.7782 83.735 17.8978 83.7097C17.5454 83.0447 17.1174 82.4367 16.6202 81.892C16.9643 82.2424 17.2873 82.4662 17.5894 82.5633C18.0866 82.7787 18.4957 83.1017 18.9048 83.469C19.5027 83.9947 20.0439 84.6154 20.8117 84.9257C20.9565 84.9827 21.0886 85.1157 21.1831 85.2487C21.8942 86.1671 22.7753 86.9081 23.7005 87.5858C24.6193 88.2698 25.576 88.9031 26.5074 89.5745C26.7529 89.7518 27.0172 89.9355 27.1682 90.1825C27.6403 90.9741 28.4207 91.3542 29.1255 91.8862C29.1948 91.6772 29.2388 91.5442 29.2766 91.4112C29.9689 91.8292 30.636 92.2218 31.2968 92.6208C31.75 92.8995 32.1905 93.1655 32.5241 93.6342C32.7821 94.0015 33.2289 94.2422 33.4052 94.6982C33.4366 94.7869 33.531 94.8566 33.6129 94.9199C34.173 95.4012 34.7331 95.8762 35.331 96.3829C35.4695 96.3513 35.652 96.3069 35.8282 96.2689C36.1429 96.6743 36.1366 96.6743 36.168 97.1873C36.168 97.2633 36.2562 97.3393 36.3128 97.4279C36.4638 97.3139 36.5897 97.2189 36.7282 97.1176C37.2757 97.4469 37.9051 97.6559 38.2575 98.2386C38.7988 98.4856 39.1008 99.005 39.5477 99.3533C39.6547 99.4356 39.8875 99.4546 40.0008 99.3913C40.1015 99.3343 45.5706 101.665 45.5706 101.665C46.351 102.355 47.2951 103.217 48.0251 103.863C48.0755 104.16 48.1132 104.388 48.151 104.642C48.5097 104.705 48.837 104.762 49.2398 104.832C49.523 105.18 49.844 105.573 50.1587 105.959L50.1272 105.997L50.1775 105.953L50.2279 105.826C50.5551 105.623 50.9454 106.409 51.26 106.561C51.5055 106.681 51.732 106.833 51.9775 106.934C52.116 106.985 52.2859 106.953 52.4999 106.966C52.4999 106.877 52.5062 106.801 52.5124 106.732C52.8964 106.364 53.4754 105.351 53.746 105.376C54.2809 105.427 54.5642 105.915 54.904 106.2C55.5208 106.041 54.8537 105.585 55.2313 105.351C55.6781 105.674 56.1564 105.991 56.5907 106.358C57.0627 106.763 57.5788 106.915 58.1767 106.839C58.3466 106.82 58.5165 106.814 58.6801 106.801C60.6626 106.599 62.6199 106.257 64.5646 105.87C68.2527 105.129 71.7897 103.907 75.2259 102.406C76.7364 101.747 78.1776 100.924 79.6377 100.151C81.4566 99.1823 83.1621 98.0296 84.8425 96.8389C85.4215 96.4336 85.9817 95.9902 86.5355 95.5469C86.9194 95.2429 86.9509 94.9959 86.6739 94.5842L86.9635 94.3499C87.3851 94.7489 87.5865 94.7742 87.9893 94.4069C88.197 94.2105 88.4991 94.0585 88.4739 93.5772C87.8194 93.5899 87.8383 92.7792 87.2404 92.5448L87.4481 92.8235C87.0767 92.5385 83.5335 89.4478 83.2502 89.0931C82.6964 88.3964 81.7964 88.1558 81.2741 87.4401C81.1985 87.3324 80.9783 87.3198 80.8272 87.2817C80.6699 87.2374 80.4496 87.2627 80.3678 87.1677C80.0657 86.7877 79.5685 86.7054 79.2412 86.3381C78.9454 86.0087 78.6874 85.6287 78.1399 85.5337C78.0518 85.5337 75.635 83.9757 75.5595 83.9757C75.4273 83.9947 72.1547 82.557 72.0288 82.595C71.4183 82.4177 71.2232 82.3353 70.9023 81.892C70.7386 81.664 70.6002 81.4803 70.4617 81.322H72.054C72.6204 81.3283 73.1491 81.2396 73.6777 81.0623C75.7798 80.3403 77.8881 79.6309 79.9965 78.9216C81.2174 78.5099 82.4447 78.0982 83.6656 77.6866C84.6915 77.3382 85.7173 76.9835 86.8124 76.6099L88.8012 75.9259L73.5456 70.8464L73.47 70.9604C73.3127 71.2201 73.3442 71.4291 73.3631 71.5811C73.3693 71.6191 73.3756 71.6571 73.3756 71.6951C73.4008 72.2018 73.4449 72.7148 73.4889 73.2088C73.5644 74.1018 73.6463 75.0265 73.5896 75.9322C73.5644 76.4199 73.3882 76.6732 72.9854 76.8062C72.6393 76.9202 72.4631 76.7682 72.161 76.4262C71.5127 75.6662 70.8519 74.9125 70.1974 74.1588C69.3226 73.1581 68.4415 72.1511 67.5793 71.1378C67.2646 70.7641 66.931 70.6121 66.4275 70.6121C64.1367 70.6184 61.9088 70.6184 59.7249 70.6248C59.6494 70.4981 59.5927 70.3524 59.5613 70.1878C59.1396 69.9851 58.7431 69.8647 58.4284 69.6304C58.1137 69.4024 57.8872 69.0477 57.6039 68.7691C57.176 68.3447 56.7795 67.8444 56.2697 67.553C55.7033 67.2237 55.225 66.8247 54.7467 66.4003C54.0921 65.8303 53.5635 65.1083 52.7894 64.6713C52.6131 64.57 52.4621 64.4306 52.2985 64.323C51.9586 64.0886 51.6565 63.8353 51.4929 63.4553C52.0467 62.6763 52.6006 61.8973 53.1544 61.1182C53.8719 60.1112 54.5893 59.1042 55.3194 58.0845L55.9739 57.1662C56.0494 57.2485 56.0998 57.3118 56.1564 57.3752L59.8256 61.6693C63.9101 66.4573 67.9946 71.2454 72.0855 76.0272C72.1232 76.0715 72.161 76.1285 72.1987 76.1792C72.3687 76.4135 72.6267 76.7745 73.0987 76.5719C73.5582 76.3692 73.5015 75.9322 73.4637 75.6409C73.4512 75.5839 73.4449 75.5205 73.4449 75.4635C73.4008 74.7162 73.3442 73.9752 73.2875 73.2278C73.2435 72.6071 73.1994 71.9865 73.1617 71.3658C73.0861 70.1561 73.0169 68.9527 72.9414 67.743C72.9036 67.135 72.8721 66.5207 72.8344 65.9127C73.1365 66.147 73.4386 66.3813 73.747 66.6157C74.3952 67.1097 76.3399 67.0527 77.1077 67.325H76.5917C78.0832 67.724 77.7308 68.3447 78.1399 68.37C78.5175 68.3384 79.3042 68.275 79.5056 68.4777C79.6881 68.6677 79.8769 68.9717 80.0846 68.9971C80.6258 69.0604 80.972 69.4404 81.4188 69.6494C81.9915 69.9154 83.395 72.0118 84.1376 72.4488L84.1062 72.4361C84.3516 73.0631 84.8299 73.4875 85.3964 73.7915C86.5481 74.4185 87.7187 75.0202 88.9711 75.4192C89.4117 75.1468 89.8396 74.8808 90.2991 74.5958C90.5571 74.6972 90.8277 74.7858 91.0857 74.8935C91.0102 74.2665 90.4186 72.6325 90.5508 72.5311C90.5948 72.3728 90.5067 71.1821 90.5445 71.0681C91.0165 70.7134 91.3564 71.1251 91.7466 71.2771C91.7592 71.1378 91.7088 70.7451 91.6836 70.6754C91.7529 70.5741 91.8221 70.4664 91.8976 70.3461C91.7906 70.2004 91.7214 70.0104 91.5892 69.9407C91.0794 69.6747 90.8088 69.2377 90.6137 68.7311C90.8592 68.6614 91.1046 68.5854 91.3438 68.5221C91.5452 68.6297 91.734 68.7374 92.0864 68.9274C91.8913 68.5474 91.7654 68.332 91.671 68.0977C91.5766 67.8444 91.5074 67.5847 91.4319 67.325C91.3689 67.078 91.092 66.907 91.1739 66.5714C91.6648 66.584 91.8221 67.0464 92.1619 67.23C92.5144 67.4264 92.8479 67.6607 93.2067 67.8507C93.5402 68.0344 93.8235 68.3384 94.3899 68.3827C93.9871 67.7747 93.6598 67.2807 93.3263 66.7677C93.4899 66.622 93.6598 66.47 93.7605 66.3813C93.9304 66.0203 93.4647 65.8493 93.7039 65.501C93.8801 65.6593 94.0437 65.8177 94.2199 65.9633C94.5598 66.2357 94.8996 66.5143 95.2584 66.7677C95.4157 66.888 95.5668 66.8564 95.6234 66.5904C95.3905 66.128 94.7738 65.862 94.7297 65.197C95.1199 65.159 95.315 65.425 95.5605 65.5707C95.8437 65.729 95.9758 66.1153 96.3849 66.1407C96.7059 65.8683 96.5423 65.2667 97.0898 65.121C97.4234 65.3997 97.7821 65.6973 98.2038 66.0457C98.2667 65.7037 98.3108 65.4567 98.3611 65.2033C98.5625 65.2667 98.7387 65.33 98.9212 65.387C99.0094 65.045 99.0786 64.76 99.1541 64.475C99.3051 64.4876 101.332 65.7227 101.407 65.767L101.338 65.596C100.772 64.95 100.545 64.1266 100.13 63.3983C100.104 63.3603 100.123 63.297 100.13 63.2336C100.52 63.5313 100.916 63.8226 101.306 64.1203C101.332 64.133 101.369 64.1393 101.395 64.1266C101.42 64.114 101.432 64.076 101.495 63.9936C101.3 63.7213 101.08 63.43 100.879 63.1323C100.677 62.8346 100.501 62.5243 100.312 62.2203C100.583 62.1379 100.495 61.8466 100.627 61.6376C100.828 61.7199 101.036 61.8023 101.237 61.8846C101.432 61.5363 101.212 61.3462 101.03 61.1499C100.665 60.7762 100.564 60.3646 100.809 59.8832C101.105 59.8832 101.369 59.8516 101.565 60.1176C101.722 60.3329 101.936 60.4976 102.301 60.4659C102.276 60.3202 102.269 60.1999 102.232 60.0859C102.137 59.7629 102.282 59.6426 102.572 59.6172C102.767 59.7439 102.962 59.8706 103.125 59.9782C103.421 59.8136 103.673 59.6742 103.887 59.5539C104.17 59.1359 104.132 58.7622 103.837 58.4012C103.818 58.3759 103.862 58.2935 103.881 58.2302C104.019 58.3189 104.157 58.4075 104.309 58.5025C104.523 58.3759 104.718 58.2682 104.919 58.1542C104.403 57.4068 104.088 56.7608 104.17 56.5898C104.296 56.6088 104.422 56.6468 104.548 56.6405C104.762 56.6278 104.85 56.5138 104.743 56.2858C104.51 56.1845 104.246 56.1212 104.032 55.9755C103.837 55.8361 103.698 55.6145 103.937 55.4245C104.239 55.4245 104.554 55.5131 104.749 55.3991C105.102 55.2028 105.328 55.5005 105.618 55.4941C105.863 55.4815 105.989 55.3675 105.945 55.0381C105.662 54.7785 105.196 54.5505 105.278 53.9741C105.655 53.9298 105.939 53.9741 106.127 54.3541C106.285 54.6835 106.587 54.7025 106.895 54.5505C107.09 54.2274 107.027 53.8791 107.021 53.5498V53.5434ZM55.8606 28.7416C55.7914 29.3876 55.6592 29.9957 55.5208 30.6353C55.4012 31.1673 55.2816 31.712 55.2061 32.2884L55.162 32.605L55.4515 32.472C56.7291 31.8704 57.8935 31.3447 59.127 31.0027C59.1773 30.9837 59.2277 30.971 59.278 30.952C59.3913 30.914 59.4731 30.8887 59.5298 30.8887C59.5927 30.8887 59.6368 30.914 59.6808 30.971L59.3724 31.0153H59.3661C59.2969 31.028 59.2214 31.047 59.1522 31.066L58.9759 31.123C58.9759 31.123 58.9445 31.1293 58.9319 31.1357C57.9942 31.4967 57.0564 31.8894 56.1438 32.2694L56.0746 32.2947C55.1872 32.662 54.2747 33.0357 53.3621 33.3904C53.0285 33.5234 52.695 33.6564 52.3551 33.7767C51.6439 34.0364 50.9328 34.3404 50.2468 34.6317C49.4978 34.9548 48.7237 35.2778 47.937 35.5564C47.5594 35.6894 47.1818 35.8098 46.7916 35.9111C46.6972 35.9364 46.6091 35.9618 46.5147 35.9934C46.458 36.0124 46.4014 36.0441 46.3448 36.0631C46.2755 36.0884 46.2063 36.1201 46.1371 36.1518C46.093 36.1708 46.0427 36.1898 45.9986 36.2088C45.9483 36.2341 45.9042 36.2658 45.8601 36.2911C45.7783 36.3354 45.6965 36.3798 45.621 36.4241C45.5392 36.4748 45.4574 36.5318 45.3755 36.5888C45.2937 36.6458 45.2119 36.7091 45.1301 36.7725C45.1049 36.7978 45.0734 36.8105 45.0483 36.8358C44.9728 36.8991 44.8972 36.9625 44.828 37.0321C44.828 37.0258 44.8217 37.0195 44.8217 37.0195C44.8343 37.0005 44.8909 36.9561 44.9161 36.9371C44.9413 36.9181 44.9602 36.8991 44.979 36.8865C44.9853 36.8865 44.9979 36.8738 45.0042 36.8675L45.0357 36.8358C46.6405 35.0751 48.2517 33.3207 49.8754 31.5727C50.0076 31.427 50.1649 31.3067 50.3223 31.237C51.7446 30.5847 53.167 29.945 54.6523 29.28L55.8606 28.7353V28.7416ZM49.7496 4.24384C49.781 4.29451 49.7936 4.35151 49.8062 4.40851C49.7685 4.37684 49.7307 4.33884 49.6929 4.30084C49.6741 4.27551 49.6552 4.25017 49.6363 4.23117C49.674 4.23117 49.737 4.23117 49.7496 4.24384ZM12.1644 46.6463C12.2084 46.469 12.2588 46.2916 12.3154 46.1206C12.3343 46.0383 12.3595 45.956 12.3909 45.88C12.4728 45.6266 12.5672 45.3796 12.6741 45.1389C12.8755 44.6513 13.1147 44.1889 13.3727 43.7329C13.442 43.5999 13.5175 43.4669 13.6056 43.3339C14.0587 42.5676 14.5685 41.8329 15.072 41.1109C15.3489 40.7182 15.6195 40.3255 15.8839 39.9265C16.1167 39.5845 16.3433 39.2488 16.5825 38.9132C16.7776 38.6218 16.9789 38.3305 17.1803 38.0391C17.6146 37.4185 18.0551 36.7788 18.4894 36.1391C18.6342 35.9174 18.7789 35.6958 18.9237 35.4741C19.3076 34.8788 19.8488 34.5367 20.4782 34.1314C20.5789 34.0681 20.6859 33.9984 20.7866 33.9287C20.6859 34.4417 20.5285 34.8978 20.3712 35.3348C20.2894 35.5691 20.2138 35.7971 20.1383 36.0251C20.0313 36.3734 19.9306 36.7028 19.8362 37.0131C19.616 37.7098 19.4083 38.3305 19.2006 38.9258C19.1439 39.0778 19.0873 39.2932 19.1943 39.4705C19.295 39.6415 19.4964 39.6858 19.6348 39.7112C21.0446 39.9265 22.4355 40.3129 23.7949 40.7309H23.8012C24.1599 40.8385 24.5186 40.9525 24.8774 41.0602C26.4004 41.5352 27.9801 42.0292 29.5787 42.3269C29.9374 42.3966 30.3024 42.4282 30.6549 42.4536C30.9821 42.4852 31.322 42.5106 31.643 42.5676C32.1653 42.6626 32.5555 42.4472 32.9394 42.2446C33.0779 42.1749 33.2164 42.0989 33.3611 42.0419C36.2373 40.9145 39.1071 39.7808 41.9833 38.6472L44.2993 37.7415C44.4315 37.6845 44.5637 37.6275 44.6958 37.5768L44.8217 37.5198L44.8783 37.4818C44.9161 37.4375 44.9539 37.3995 44.9916 37.3678C45.0042 37.3678 45.0105 37.3678 45.0231 37.3678C45.0672 37.3551 45.1049 37.3425 45.1364 37.3298C48.0251 36.1264 50.9768 34.9421 53.8278 33.7957C55.0991 33.2827 56.3767 32.7634 57.648 32.2504C58.1955 32.0287 58.7431 31.8134 59.2906 31.5854C59.3095 31.579 59.3347 31.5727 59.3536 31.5664C59.385 31.56 59.4165 31.5474 59.448 31.541C59.4668 31.5347 59.492 31.5284 59.5172 31.522C59.5298 31.522 59.5361 31.5157 59.5487 31.5094C59.5864 31.4967 59.6305 31.484 59.6682 31.465C59.6871 31.4587 59.706 31.4524 59.7312 31.446C59.7626 31.427 59.7941 31.4017 59.8256 31.3827C59.8382 31.37 59.8508 31.3637 59.8696 31.351C59.8885 31.3384 59.9011 31.3257 59.92 31.3067L60.2032 31.2687C60.4738 31.2307 60.7193 31.1167 60.9584 31.009C61.2165 30.8887 61.4682 30.7747 61.7388 30.762H61.7892C63.3248 30.2173 64.6968 29.3433 66.0185 28.4946C66.4905 28.1906 66.9625 27.893 67.4408 27.6016C70.6002 25.7079 73.4575 24.8592 76.1952 25.0049C79.2224 25.1759 82.2307 24.8402 85.1446 24.5109C86.0635 24.4096 86.9886 24.3082 87.9138 24.2196C88.5306 24.1562 89.1536 24.0929 89.7704 24.0295C90.9599 23.9029 92.1871 23.7699 93.4018 23.6939C93.4521 23.6875 93.5025 23.6812 93.5591 23.6749C93.8109 23.6369 93.8423 23.6559 93.8675 23.7255C93.9053 23.8269 93.9053 23.8522 93.6787 23.9599C93.6158 23.9915 93.5528 24.0232 93.4962 24.0549C92.5144 24.6882 91.5263 25.3216 90.5445 25.9549C88.9522 26.9873 87.3033 28.045 85.667 29.0646C85.4467 29.204 85.2264 29.3433 85.0124 29.4827C84.0432 30.1033 83.0489 30.743 81.8971 31.0977L76.4847 34.0111C76.2959 34.1061 76.2077 34.1821 76.1511 34.2327C76.1008 34.2771 76.0882 34.2834 75.8805 34.2834L73.2624 35.6261C71.2925 36.6458 69.1904 37.4818 67.1639 38.2861C66.6101 38.5015 66.0625 38.7168 65.515 38.9385C65.2003 39.0715 64.8856 39.1982 64.5709 39.3312C63.2933 39.8568 61.9717 40.4015 60.6186 40.7942C60.4927 40.8322 60.3857 40.9209 60.2913 40.9969L60.241 41.0349C59.7249 41.4592 59.1962 41.6239 58.7179 41.5099C58.2396 41.3959 57.8305 41.0095 57.541 40.3825C56.9054 38.9828 56.8802 37.8998 57.4844 36.8738C57.6291 36.6205 57.4907 36.3988 57.434 36.3164L57.39 36.2721C56.8613 35.8984 56.383 36.1391 55.9991 36.3354C55.911 36.3798 55.8229 36.4241 55.7411 36.4558C54.8788 36.8168 54.0544 37.2981 53.2614 37.7605L52.525 38.1911L53.2173 38.1658C53.9285 38.1405 54.583 37.8871 55.2187 37.6528C55.5648 37.5198 55.9173 37.3868 56.2886 37.2791C56.0368 38.3115 56.125 39.2995 56.5529 40.2749C56.9998 41.3009 57.6354 41.9342 58.5417 42.2446L57.6354 42.5866C56.534 43.0046 55.3949 43.4352 54.2621 43.8089C52.7768 44.3029 51.5621 44.6133 50.4356 44.7906C49.9321 44.8666 49.5796 45.1326 49.2838 45.6393C48.1699 47.552 47.0559 49.4584 45.942 51.3711C45.0609 52.8721 44.1861 54.3731 43.3175 55.8741C42.8959 56.5835 42.4868 57.2928 42.0714 58.0085C41.7442 58.5722 41.3791 58.8762 40.8127 59.0599C39.5414 59.4715 38.3016 59.9212 36.9862 60.3962C36.5645 60.5419 36.1429 60.6939 35.7149 60.8522C36.0799 57.8818 36.4261 55.0001 36.7722 52.1501C36.8478 51.9284 36.7848 51.7384 36.7345 51.5674C36.703 51.4787 36.6778 51.3964 36.6715 51.3204C36.6275 50.687 36.4701 50.3134 36.1743 50.155C36.0736 50.098 35.9604 50.0664 35.8345 50.0664C35.6142 50.0664 35.3499 50.155 35.0415 50.326C34.7583 50.4844 34.4877 50.459 34.1982 50.4274C33.9716 50.4084 33.7387 50.383 33.5059 50.4464C33.0276 50.5414 32.5555 50.6427 32.0772 50.744C30.9884 50.9721 29.8619 51.2064 28.7479 51.3774C28.3766 51.4344 28.0053 51.4977 27.634 51.5611C26.6899 51.7257 25.7144 51.8967 24.7389 51.9347C24.0655 51.9601 23.6187 51.7131 23.2536 51.1114C23.1529 50.9467 23.046 50.7884 22.9453 50.6237C22.7627 50.345 22.5739 50.0474 22.4103 49.756C21.6865 48.4513 20.5096 47.951 18.8104 48.2423L18.7349 48.255C18.4768 48.3057 18.4013 48.312 18.3069 48.1537L17.7719 47.2606C17.2496 46.3866 16.7272 45.5126 16.2237 44.6639C16.2174 44.6513 16.2237 44.6196 16.23 44.5943C16.23 44.5753 16.23 44.5499 16.23 44.5309C16.3244 44.2966 16.444 44.0559 16.5887 43.8153C16.658 43.7203 16.7209 43.6252 16.7838 43.5302C16.9601 43.2769 17.1174 43.0236 17.2559 42.7956C17.4384 42.5296 17.602 42.2826 17.7468 42.0419C17.8223 41.9152 17.8978 41.7885 17.967 41.6682L17.86 41.5985L17.6775 41.4845C17.602 41.5922 17.5328 41.6999 17.4636 41.8139C17.3377 42.0102 17.2181 42.2066 17.0859 42.4219L17.0545 42.4789L16.9727 42.6056V42.6182L16.9538 42.6372L16.9034 42.7069C16.8594 42.7702 16.8153 42.8336 16.765 42.9032C16.765 42.9032 16.7398 42.9412 16.7272 42.9666C16.6013 43.1439 16.4881 43.3276 16.3811 43.5112C16.3622 43.5429 16.337 43.5746 16.3181 43.6126H16.3118C16.1671 43.8153 16.016 43.9989 15.8398 44.1889C15.8398 44.1889 15.8083 44.2269 15.7958 44.2396L15.6321 44.4929L15.1098 45.2909C14.4112 46.3613 13.7126 47.4317 13.0203 48.5083C12.8063 48.8377 12.6364 49.0784 12.3406 49.167C12.0763 49.2114 11.7868 49.2494 11.428 49.281C11.3903 49.281 11.3651 49.281 11.3399 49.281C11.2392 49.281 11.214 49.2557 11.214 49.2557C11.214 49.2557 11.1952 49.205 11.2644 49.0657C11.3651 48.8187 11.4658 48.5717 11.5728 48.3247C11.7993 47.7863 12.0385 47.2227 12.1832 46.6463H12.1644ZM48.6167 48.5717C48.6923 48.654 48.7615 48.7427 48.8307 48.8313C48.8936 48.9137 48.9566 48.9897 49.0195 49.072C49.3342 49.4457 49.6426 49.813 49.951 50.1867C50.7251 51.1177 51.5244 52.0867 52.3362 53.0114C52.6257 53.3408 52.6257 53.4484 52.3362 53.7524C50.895 55.2345 49.4727 56.7228 48.044 58.2112C47.8174 58.4455 47.5972 58.6799 47.3706 58.9142C47.3958 58.8129 47.4272 58.7115 47.4524 58.5975C46.5147 58.1099 45.6273 57.5398 44.7714 56.9382C44.9287 56.1845 45.086 55.4308 45.2434 54.6771V54.5125L44.7902 54.3668L44.7273 54.5125C44.6014 54.7975 44.4441 55.0825 44.2868 55.3548C44.1231 55.6398 43.9532 55.9375 43.821 56.2542C43.7392 56.1972 43.6637 56.1338 43.5819 56.0768C44.463 54.5631 45.3504 53.0494 46.2315 51.5421C47.3454 49.6294 48.4657 47.723 49.5734 45.8103C49.8188 45.3859 50.0831 45.1896 50.4796 45.1263C50.9579 45.0503 51.4425 44.9553 51.9649 44.8286L52.8649 45.6583C52.8082 45.538 52.7957 45.4683 52.7516 45.4176C52.632 45.2783 52.4999 45.1579 52.3614 45.0376C52.5187 45.1516 52.6824 45.2656 52.8586 45.3669C53.0915 45.4936 53.2866 45.69 53.488 45.8736C54.0103 46.3423 54.5264 46.8173 55.1054 47.343C55.1306 47.8497 55.3634 48.3627 55.7222 48.825C55.9676 48.9327 56.2634 48.977 56.4396 49.1544C56.4711 49.186 56.5026 49.224 56.5277 49.262C56.5277 49.262 56.5277 49.262 56.5277 49.2684C56.5026 49.3444 56.4459 49.4204 56.3578 49.5027C55.4264 50.4527 54.5956 51.3394 53.8278 52.2134C53.6705 52.3907 53.5886 52.4287 53.5446 52.4287C53.4502 52.4287 53.2991 52.2387 53.2488 52.1754C52.0908 50.7821 50.8887 49.3887 49.7244 48.0397L49.5419 47.8307C49.5419 47.8307 49.4978 47.7737 49.4789 47.742C49.4034 47.628 49.3027 47.476 49.1265 47.457C49.0258 47.4443 48.9251 47.4887 48.8307 47.5773L48.793 47.6153C48.6293 47.7737 48.2517 48.1347 48.623 48.5717H48.6167ZM35.482 70.9668L34.6324 71.9105L35.0793 70.9921L35.482 70.9668ZM34.0975 72.6325H34.2296C34.2296 72.6325 34.217 72.6515 34.2045 72.6578C34.11 72.7718 34.0534 72.8351 33.9905 72.8605L34.0975 72.6325ZM52.2922 44.9933C52.2104 44.9299 52.1348 44.8666 52.053 44.8033H52.0593C52.1348 44.8666 52.2104 44.9299 52.2859 44.9933H52.2922ZM62.1101 55.8741C63.1801 56.6975 64.1493 58.6862 65.2129 59.5159C66.2765 60.3519 65.7541 60.4849 66.824 61.3209C67.9946 62.2329 69.1904 63.1133 70.3673 64.0126C70.7638 64.323 71.1666 64.627 71.5631 64.9373C71.6638 66.5397 71.7582 68.1737 71.8463 69.7951C71.8652 70.1687 71.9029 70.5488 71.9344 70.9288C71.9973 71.7078 72.0666 72.5058 72.0351 73.3545L70.0338 69.8901C67.1891 64.988 64.3507 60.0859 61.506 55.1838C61.8018 55.5511 62.0409 55.8235 62.1101 55.8741ZM66.4212 70.9541C66.8177 70.9541 67.0569 71.0618 67.3086 71.3594C68.1771 72.3728 69.052 73.3798 69.9268 74.3805C70.5876 75.1342 71.2421 75.8879 71.8966 76.6479C72.1547 76.9519 72.4819 77.3319 73.0861 77.1292C73.6274 76.9519 73.8917 76.5782 73.9295 75.9512C73.9861 75.0138 73.9043 74.0765 73.8288 73.1771C73.7847 72.6831 73.7407 72.1701 73.7155 71.6698C73.7155 71.6254 73.7092 71.5748 73.7029 71.5241C73.6903 71.4354 73.6777 71.3531 73.7029 71.2644L87.7061 75.9259L86.6991 76.2742C85.5978 76.6479 84.5782 77.0025 83.5523 77.3446C82.3251 77.7626 81.1041 78.1742 79.8769 78.5859C77.7685 79.2953 75.6665 80.0046 73.5581 80.7203C73.0673 80.8913 72.5764 80.9736 72.0477 80.9736H69.31C57.8053 80.961 45.9105 80.9546 34.2107 80.9863H34.1667C32.5681 80.9863 31.1898 80.7519 29.8241 80.2643C27.1368 79.2953 24.3865 78.3706 21.7306 77.4776C20.5474 77.0785 19.3642 76.6795 18.181 76.2742C17.923 76.1855 17.6712 76.0842 17.3629 75.9639L17.2685 75.9259L19.0118 75.3305C20.5537 74.8112 22.0264 74.3108 23.5054 73.8042L25.1732 73.2405C27.1934 72.5565 29.2074 71.8661 31.2213 71.1631C31.7437 70.9858 32.2786 70.9288 32.952 70.9858L32.6185 71.6951C32.266 72.4425 31.9136 73.1708 31.5674 73.9055L31.4101 74.2412C31.2087 74.6592 31.0073 75.0898 30.8374 75.5332C30.6297 76.0905 30.7556 76.5719 31.1961 76.8885C31.6367 77.1989 32.0961 77.1799 32.5744 76.8252C33.0905 76.4389 33.531 75.9639 33.959 75.5015C34.11 75.3368 34.2674 75.1722 34.4247 75.0075C35.2177 74.1905 36.0044 73.3608 36.7848 72.5311C37.1813 72.1131 37.5778 71.6951 37.968 71.2771C38.2009 71.0428 39.7302 70.8084 40.0449 70.9604C40.091 70.9858 40.0994 71.0428 40.0701 71.1314C40.0575 71.1694 40.0449 71.2074 40.0386 71.2454L39.6295 73.1771C39.2834 74.8175 38.9246 76.5085 38.5911 78.1742C38.5722 78.2756 38.547 78.3769 38.5155 78.4846C38.3771 79.0356 38.182 79.7893 39.0505 80.2073C39.9631 80.6443 40.4225 79.9666 40.7561 79.4663L40.9071 79.2573C42.9148 76.5022 44.8658 73.7345 46.5084 71.3974C46.7412 71.0618 46.9489 70.9541 47.3328 70.9541C50.3601 70.9604 53.4376 70.9604 56.6033 70.9604C59.7689 70.9604 63.0227 70.9604 66.4149 70.9541H66.4212ZM72.9414 73.2468C72.9917 73.9878 73.0484 74.7288 73.0924 75.4762C73.0924 75.5395 73.105 75.6092 73.1113 75.6852C73.1554 76.0082 73.1491 76.1602 72.954 76.2425C72.7589 76.3312 72.6645 76.2362 72.4757 75.9702C72.4316 75.9069 72.3875 75.8499 72.3435 75.7929C68.2527 71.0111 64.1681 66.223 60.0836 61.4349L56.4145 57.1408C56.3452 57.0648 56.2823 56.9888 56.1879 56.8875L55.9362 56.6088L55.0299 57.8755C54.2998 58.8952 53.5824 59.9022 52.8712 60.9092C49.6426 65.444 46.414 69.9851 43.1917 74.5262L39.9631 79.0673L39.9127 79.1369C39.7239 79.4156 39.6421 79.4916 39.4785 79.4283C39.2897 79.3586 39.2897 79.2763 39.3715 78.9659C39.3841 78.9089 39.3966 78.8582 39.4092 78.8012C40.2085 74.9505 40.9952 71.0934 41.7819 67.2427C41.8197 67.0717 41.8448 66.8944 41.8637 66.7487L41.9581 66.09L41.5931 66.4383C41.2973 66.7234 40.9952 67.002 40.6931 67.2934C40.026 67.914 39.3337 68.5601 38.6855 69.2314C37.2631 70.7008 35.8282 72.2081 34.4436 73.6585C33.7261 74.4122 33.0087 75.1658 32.2912 75.9195L32.2157 76.0019C31.9954 76.2425 31.9136 76.3059 31.7185 76.1729C31.5674 76.0652 31.5863 76.0082 31.7185 75.7612C31.7437 75.7105 31.7688 75.6599 31.794 75.6155L32.9269 73.1581C34.7142 69.2947 36.5645 65.3047 38.3519 61.3653C38.5911 60.8396 38.8869 60.5926 39.3966 60.5356L33.5185 73.0505L33.6632 73.1328C34.0849 73.3608 34.3303 73.0568 34.4751 72.8795C34.5065 72.8415 34.5317 72.8035 34.5632 72.7718C36.0611 71.2201 37.5526 69.6684 39.0505 68.1167C40.026 67.097 41.0078 66.0837 41.9833 65.064C42.4176 64.6143 42.4868 64.0633 42.556 63.5313C42.5812 63.3286 42.6064 63.1386 42.6504 62.9549C42.9966 61.5236 43.2987 60.0542 43.5819 58.6355C43.6889 58.1099 43.7959 57.5905 43.9091 57.0648C44.0224 56.5075 44.293 56.0261 44.5826 55.5258C44.6455 55.4055 44.7147 55.2851 44.7839 55.1648C44.2868 57.5398 43.7896 59.9276 43.2672 62.4419L42.9588 63.9113L43.3679 63.4996C43.6448 63.221 43.9028 62.9613 44.1546 62.7143C44.6958 62.1759 45.1867 61.6883 45.665 61.1879C46.5399 60.2759 47.4147 59.3639 48.2895 58.4519C49.7118 56.9635 51.1405 55.4751 52.5754 53.9994C52.9971 53.5624 53.0033 53.2458 52.6006 52.7771C51.7887 51.8587 50.9894 50.8961 50.2153 49.965C49.9069 49.5914 49.5985 49.2177 49.2838 48.8503C49.2209 48.768 49.1643 48.692 49.1013 48.616C49.0258 48.5273 48.9566 48.4323 48.8811 48.3437C48.7426 48.1853 48.793 48.0903 49.0258 47.8687L49.0636 47.8307L49.0887 47.8053C49.0887 47.8053 49.158 47.9003 49.1832 47.9383C49.2146 47.9827 49.2461 48.027 49.2713 48.0587L49.4538 48.2677C50.6181 49.6167 51.8202 51.0037 52.9782 52.3971C53.1607 52.6251 53.3243 52.7708 53.532 52.7771C53.7523 52.7898 53.9348 52.6124 54.0796 52.4477C54.8474 51.5737 55.6718 50.6934 56.597 49.7497C56.641 49.7054 56.6851 49.6547 56.7166 49.6104C56.9494 49.3127 56.9431 49.0213 56.7103 48.6413C56.018 47.5013 55.3257 46.3106 54.6397 45.1073C54.6082 45.0503 54.5642 44.9933 54.5075 44.9299C54.4635 44.8856 54.3753 44.7843 54.3753 44.7463C54.3753 44.7463 54.3879 44.7209 54.4509 44.6893C54.5579 44.6259 54.7152 44.5626 54.86 44.6006C54.9669 44.6323 55.0676 44.7273 55.1495 44.8793C55.4012 45.3353 55.6718 45.7913 55.9299 46.2346C56.2634 46.792 56.6033 47.362 56.9054 47.9447C57.0753 48.2803 57.2389 48.5083 57.4781 48.54C57.7172 48.578 57.9375 48.4007 58.1955 48.122C59.2529 46.9946 60.3417 45.861 61.399 44.7653C62.7395 43.3782 64.1241 41.9342 65.4583 40.4902C66.3017 39.5845 67.359 39.1855 68.5862 38.7295L63.1171 46.469C61.9843 48.0777 60.8074 49.737 59.6431 51.3647C59.492 51.5737 59.4102 51.7574 59.4039 51.9537C59.3913 52.1374 59.448 52.3337 59.5738 52.5491C59.6116 52.6124 59.6431 52.6694 59.6808 52.7328C59.8067 52.9481 59.9326 53.1698 60.0584 53.3851H60.0647C63.2933 58.9459 66.5156 64.5003 69.7317 70.0611L71.8022 73.6395C71.8337 73.6901 71.8652 73.7408 71.9218 73.8358L72.3057 74.4818L72.3498 73.9435C72.4442 72.8541 72.3498 71.8598 72.2743 70.8971C72.2428 70.5234 72.2113 70.1498 72.1924 69.7761C72.1106 68.2497 72.0225 66.7234 71.9281 65.216C71.7393 62.1506 71.5442 59.1802 71.368 56.5012C71.1477 53.1888 70.9211 49.87 70.6946 46.5576C70.5687 44.7843 70.4491 43.0172 70.3295 41.2439C70.2981 40.8512 70.2792 40.4585 70.254 40.0659C70.2289 39.5465 70.1974 39.0272 70.1596 38.5078C70.1344 38.1848 70.21 38.0391 70.4806 37.9315C70.6316 37.8681 70.6757 37.8745 70.6757 37.8745C70.682 37.8745 70.7072 37.9188 70.7197 38.1025C71.003 42.8209 71.2862 47.5393 71.5883 52.2577C71.7078 54.1451 71.8337 56.0261 71.9659 57.9135C72.0792 59.6425 72.1987 61.3716 72.312 63.1006C72.3687 63.943 72.419 64.7853 72.4694 65.6277C72.5134 66.337 72.5512 67.0464 72.5952 67.7557C72.6645 68.9654 72.7337 70.1687 72.8092 71.3784C72.847 72.0055 72.891 72.6261 72.9414 73.2468ZM90.4375 68.6424C90.576 68.5094 90.5697 68.6234 90.576 68.6994C90.5319 68.6804 90.4879 68.6614 90.4375 68.6424Z" fill="#071D99"/>
</svg>
